<svg xmlns="http://www.w3.org/2000/svg" version="1.1" xmlns:xlink="http://www.w3.org/1999/xlink" width="512" height="512" x="0" y="0" viewBox="0 0 1.707 1.707" style="enable-background:new 0 0 512 512" xml:space="preserve" fill-rule="evenodd"><g><path d="M.918 1.327h-.41a.02.02 0 0 1-.02-.02.178.178 0 0 0-.356 0 .02.02 0 0 1-.02.02H.02a.02.02 0 0 1-.02-.02V.846A.108.108 0 0 1 .111.75h.014A6.677 6.677 0 0 1 .36.746C.485.746.572.839.582.98c.003.055.017.083.079.088h.286l.095-.102A.02.02 0 0 1 1.057.96h.128a.02.02 0 0 1 .02.02v.142a.02.02 0 0 1-.027.018.177.177 0 0 0-.24.167.02.02 0 0 1-.02.02zm-.392-.04H.9a.218.218 0 0 1 .266-.192V1h-.1l-.095.102a.02.02 0 0 1-.014.006H.658C.563 1.1.546 1.04.542.983.536.888.484.786.359.785H.34A6.707 6.707 0 0 0 .11.788C.051.79.041.84.04.85v.438h.053a.218.218 0 0 1 .433 0z" fill="#023345" opacity="1" data-original="#000000"></path><path d="M.898 1.108H.773a.02.02 0 0 1-.02-.018C.75 1.055.725.98.725.978a.02.02 0 0 1 .01-.024L.85.903a.02.02 0 0 1 .027.013l.04.165a.02.02 0 0 1-.018.027zm-.108-.04h.082L.843.948.768.984c.006.02.016.057.022.085z" fill="#023345" opacity="1" data-original="#000000"></path><path d="M.8.966A.02.02 0 0 1 .781.953L.75.855A.02.02 0 1 1 .787.842L.819.94A.02.02 0 0 1 .8.966z" fill="#023345" opacity="1" data-original="#000000"></path><path d="M.73.88A.02.02 0 0 1 .725.843L.798.817a.02.02 0 0 1 .013.038L.737.88a.02.02 0 0 1-.006 0z" fill="#023345" opacity="1" data-original="#000000"></path><path d="M.956 1.108H.658C.563 1.1.546 1.04.542.983.536.888.484.786.359.785a1.667 1.667 0 0 0-.1 0 .02.02 0 0 1-.02-.02V.408c0-.061.05-.111.112-.111h.368c.065 0 .091.06.11.104l.246.571a.02.02 0 0 1-.006.024l-.099.106a.02.02 0 0 1-.014.006zm-.295-.04h.286l.086-.092-.24-.56C.772.37.754.336.718.336H.35a.072.072 0 0 0-.072.072v.337a3.396 3.396 0 0 1 .08 0C.486.746.573.839.583.98c.003.055.017.083.079.088z" fill="#023345" opacity="1" data-original="#000000"></path><path d="M.995 1.066a.02.02 0 0 1-.019-.012L.714.448A.425.425 0 0 0 .702.42H.363v.343a.02.02 0 0 1-.04 0V.408c0-.015.013-.027.028-.027h.362A.02.02 0 0 1 .73.389c.007.01.015.027.022.043v.002l.262.605a.02.02 0 0 1-.018.027zM.31 1.422a.115.115 0 1 1 0-.23.115.115 0 0 1 0 .23zm0-.19a.075.075 0 1 0 0 .15.075.075 0 0 0 0-.15z" fill="#023345" opacity="1" data-original="#000000"></path><path d="M.31 1.524a.218.218 0 1 1 0-.435.218.218 0 0 1 0 .435zm0-.395a.178.178 0 1 0 0 .356.178.178 0 0 0 0-.356zM1.116 1.524a.218.218 0 1 1 0-.435.218.218 0 0 1 0 .435zm0-.395a.178.178 0 1 0 0 .356.178.178 0 0 0 0-.356z" fill="#023345" opacity="1" data-original="#000000"></path><path d="M1.116 1.422a.115.115 0 1 1 0-.23.115.115 0 0 1 0 .23zm0-.19a.075.075 0 1 0 0 .15.075.075 0 0 0 0-.15zM.13 1A.02.02 0 0 1 .11.98V.894a.02.02 0 0 1 .04 0V.98A.02.02 0 0 1 .13 1zM.206 1a.02.02 0 0 1-.02-.02V.894a.02.02 0 0 1 .04 0V.98a.02.02 0 0 1-.02.02zM.281 1a.02.02 0 0 1-.02-.02V.894a.02.02 0 0 1 .04 0V.98a.02.02 0 0 1-.02.02zM.356 1a.02.02 0 0 1-.02-.02V.894a.02.02 0 0 1 .04 0V.98a.02.02 0 0 1-.02.02zM.432 1a.02.02 0 0 1-.02-.02V.894a.02.02 0 0 1 .04 0V.98a.02.02 0 0 1-.02.02zM1.185 1h-.128a.02.02 0 0 1-.02-.02V.366c0-.047.038-.084.084-.084h.064a.02.02 0 0 1 .02.02V.98a.02.02 0 0 1-.02.02zM1.077.96h.088V.322h-.044a.044.044 0 0 0-.044.044V.96z" fill="#023345" opacity="1" data-original="#000000"></path><path d="M1.185 1a.02.02 0 0 1-.02-.02V.202a.02.02 0 0 1 .04 0V.98a.02.02 0 0 1-.02.02z" fill="#023345" opacity="1" data-original="#000000"></path><path d="M1.287.617h-.102a.02.02 0 0 1-.02-.02v-.15a.02.02 0 0 1 .02-.02h.102a.02.02 0 0 1 .02.02v.15a.02.02 0 0 1-.02.02zm-.082-.04h.062v-.11h-.062z" fill="#023345" opacity="1" data-original="#000000"></path><path d="M1.687 1.057h-.4a.02.02 0 0 1-.02-.02V.334a.02.02 0 0 1 .04 0v.683h.38a.02.02 0 0 1 0 .04z" fill="#023345" opacity="1" data-original="#000000"></path><path d="M1.637 1.057h-.35a.02.02 0 0 1-.02-.02v-.27a.02.02 0 0 1 .02-.02h.35a.02.02 0 0 1 .02.02v.27a.02.02 0 0 1-.02.02zm-.33-.04h.31v-.23h-.31z" fill="#023345" opacity="1" data-original="#000000"></path><path d="M1.562.904h-.088a.02.02 0 0 1-.02-.02V.767a.02.02 0 0 1 .02-.02h.088a.02.02 0 0 1 .02.02v.117a.02.02 0 0 1-.02.02zm-.068-.04h.048V.787h-.048z" fill="#023345" opacity="1" data-original="#000000"></path><path d="M1.637.787h-.35a.02.02 0 0 1-.02-.02v-.27a.02.02 0 0 1 .02-.02h.35a.02.02 0 0 1 .02.02v.27a.02.02 0 0 1-.02.02zm-.33-.04h.31v-.23h-.31z" fill="#023345" opacity="1" data-original="#000000"></path><path d="M1.45.633h-.088a.02.02 0 0 1-.02-.02V.496a.02.02 0 0 1 .02-.02h.088a.02.02 0 0 1 .02.02v.117a.02.02 0 0 1-.02.02zm-.068-.04h.048V.516h-.048zM1.388 1.524H.038a.02.02 0 0 1 0-.04h1.35a.02.02 0 0 1 0 .04z" fill="#023345" opacity="1" data-original="#000000"></path></g></svg>