<svg xmlns="http://www.w3.org/2000/svg" version="1.1" xmlns:xlink="http://www.w3.org/1999/xlink" width="512" height="512" x="0" y="0" viewBox="0 0 450 450" style="enable-background:new 0 0 512 512" xml:space="preserve"><g><path d="M155.25 117.67c-.79 0-1.59-.19-2.31-.57a5.002 5.002 0 0 1-2.69-4.43V13.56c0-2.76 2.24-5 5-5s5 2.24 5 5v89.54l17.56-12.23c3.83-2.67 8.99-2.67 12.82 0l17.57 12.23V13.56c0-2.76 2.24-5 5-5s5 2.24 5 5v99.11c0 1.86-1.03 3.57-2.69 4.43-1.65.86-3.64.74-5.17-.33l-25.43-17.7a1.22 1.22 0 0 0-1.39 0l-25.42 17.7c-.85.6-1.85.9-2.85.9z" fill="#023345" opacity="1" data-original="#000000"></path><path d="M226.77 367.01H30.65C16.51 367.01 5 355.5 5 341.36V34.21C5 20.07 16.51 8.56 30.65 8.56H337.8c14.14 0 25.65 11.51 25.65 25.65v186.88c0 2.76-2.24 5-5 5s-5-2.24-5-5V34.21c0-8.63-7.02-15.65-15.65-15.65H30.65C22.02 18.56 15 25.58 15 34.21v307.15c0 8.63 7.02 15.65 15.65 15.65h196.12c2.76 0 5 2.24 5 5s-2.24 5-5 5z" fill="#023345" opacity="1" data-original="#000000"></path><path d="M81.43 284.73H48.82c-2.76 0-5-2.24-5-5s2.24-5 5-5h32.61c2.76 0 5 2.24 5 5s-2.24 5-5 5zM81.43 313.22H48.82c-2.76 0-5-2.24-5-5s2.24-5 5-5h32.61c2.76 0 5 2.24 5 5s-2.24 5-5 5zM330.52 413.36c-47.64 0-86.39-38.76-86.39-86.39s38.76-86.39 86.39-86.39 86.39 38.75 86.39 86.39-38.75 86.39-86.39 86.39zm0-162.79c-42.12 0-76.39 34.27-76.39 76.39s34.27 76.39 76.39 76.39 76.39-34.27 76.39-76.39c.01-42.12-34.26-76.39-76.39-76.39z" fill="#023345" opacity="1" data-original="#000000"></path><path d="M330.52 441.44c-63.12 0-114.48-51.35-114.48-114.48 0-63.12 51.35-114.48 114.48-114.48S445 263.84 445 326.96c0 63.13-51.36 114.48-114.48 114.48zm0-218.95c-57.61 0-104.48 46.87-104.48 104.48s46.87 104.48 104.48 104.48S435 384.57 435 326.96s-46.87-104.47-104.48-104.47z" fill="#023345" opacity="1" data-original="#000000"></path><path d="M313.5 369.33c-3.47 0-6.74-1.35-9.2-3.81l-19.73-19.73c-6.2-6.2-6.2-16.29 0-22.49s16.29-6.2 22.49 0l6.44 6.44 40.48-40.48c3-3 7-4.66 11.25-4.66s8.24 1.65 11.25 4.66c6.2 6.2 6.2 16.29 0 22.49l-53.78 53.78c-2.46 2.45-5.72 3.8-9.2 3.8zm-17.68-40.69c-1.51 0-3.03.58-4.18 1.73-2.3 2.3-2.3 6.05 0 8.35l19.73 19.73c1.14 1.13 3.12 1.13 4.25 0l53.78-53.78c2.3-2.3 2.3-6.05 0-8.35-1.12-1.12-2.6-1.73-4.18-1.73s-3.06.61-4.18 1.73l-44.01 44.01a5.003 5.003 0 0 1-7.07 0l-9.97-9.97a5.874 5.874 0 0 0-4.17-1.72z" fill="#023345" opacity="1" data-original="#000000"></path></g></svg>