<svg xmlns="http://www.w3.org/2000/svg" version="1.1" xmlns:xlink="http://www.w3.org/1999/xlink" width="512" height="512" x="0" y="0" viewBox="0 0 64 64" style="enable-background:new 0 0 512 512" xml:space="preserve" class=""><g transform="matrix(-1,0,0,1,64,0)"><path d="M62 24h-9V2a1 1 0 0 0-1-1h-8a.999.999 0 0 0-.684.271l-32 30 .004.004A.988.988 0 0 0 11 32v12.898l-9.695 9.383.002.002A.995.995 0 0 0 1 55v7a1 1 0 0 0 1 1h28a.99.99 0 0 0 .68-.275l.004.004 32-30A.996.996 0 0 0 63 32v-7a1 1 0 0 0-1-1zm-2.529 2L29.604 54h-7.076l29.867-28zM21 32.433 51 4.308v20.258L21 52.692zM44.396 3h5.076L19.604 31h-5.076zM11 47.682V54H4.471zM29 61H3v-5h9a1 1 0 0 0 1-1V33h6v22a1 1 0 0 0 1 1h9zm2-1.308v-4.258l30-28.125v4.259z" fill="#023345" opacity="1" data-original="#000000"></path></g></svg>