<svg xmlns="http://www.w3.org/2000/svg" version="1.1" xmlns:xlink="http://www.w3.org/1999/xlink" width="512" height="512" x="0" y="0" viewBox="0 0 512 512" style="enable-background:new 0 0 512 512" xml:space="preserve" class=""><g transform="matrix(-0.8600000000000004,0,0,0.8600000000000004,476.1600000000001,35.83999999999989)"><path d="M504.5 118.27v226.66c0 12.77-10.36 23.13-23.13 23.13h-25.93M420.44 368.06h-49.82M143.94 141.3V30.63c0-12.77 10.36-23.13 23.13-23.13h314.3c12.77 0 23.13 10.36 23.13 23.13v52.64" style="stroke-width:15;stroke-linecap:round;stroke-linejoin:round;stroke-miterlimit:10;" fill="none" stroke="#023345" stroke-width="15" stroke-linecap="round" stroke-linejoin="round" stroke-miterlimit="10" data-original="#000000" opacity="1" class=""></path><path d="M223.049 86.61h-12.907c-16.494 0-29.866-13.371-29.866-29.866V43.838h12.907c16.494 0 29.866 13.371 29.866 29.866V86.61zM425.39 288.951h12.907c16.494 0 29.866 13.371 29.866 29.866v12.907h-12.907c-16.494 0-29.866-13.371-29.866-29.866v-12.907zM302.833 43.838h12.907c16.494 0 29.866 13.371 29.866 29.866V86.61h-12.907c-16.494 0-29.866-13.371-29.866-29.866V43.838zM368.611 238.936c5.472-6.864 13.906-11.264 23.366-11.264h12.907v12.907c0 16.494-13.371 29.866-29.866 29.866h-5.082M239.555 143.527v-6.546c0-16.494 13.371-29.866 29.866-29.866h12.907v12.907c0 9.541-4.474 18.037-11.438 23.505M425.39 166.394h12.907c16.494 0 29.866 13.371 29.866 29.866v12.907h-12.907c-16.494 0-29.866-13.371-29.866-29.866v-12.907zM425.39 43.838h12.907c16.494 0 29.866 13.371 29.866 29.866V86.61h-12.907c-16.494 0-29.866-13.371-29.866-29.866V43.838zM404.884 107.116v12.907c0 16.494-13.371 29.866-29.866 29.866h-12.907v-12.907c0-16.494 13.371-29.866 29.866-29.866h12.907zM69.11 143.94H30.63c-12.77 0-23.13 10.36-23.13 23.13v314.3c0 12.77 10.36 23.13 23.13 23.13h79.39" style="stroke-width:15;stroke-linecap:round;stroke-linejoin:round;stroke-miterlimit:10;" fill="none" stroke="#023345" stroke-width="15" stroke-linecap="round" stroke-linejoin="round" stroke-miterlimit="10" data-original="#000000" opacity="1" class=""></path><path d="M104.11 143.94h240.82c12.77 0 23.13 10.36 23.13 23.13v314.3c0 12.77-10.36 23.13-23.13 23.13H145.02M86.61 223.049H73.703c-16.494 0-29.866-13.371-29.866-29.866v-12.907h12.907c16.494 0 29.866 13.371 29.866 29.866v12.907z" style="stroke-width:15;stroke-linecap:round;stroke-linejoin:round;stroke-miterlimit:10;" fill="none" stroke="#023345" stroke-width="15" stroke-linecap="round" stroke-linejoin="round" stroke-miterlimit="10" data-original="#000000" opacity="1" class=""></path><path d="M288.951 425.39h12.907c16.494 0 29.866 13.371 29.866 29.866v12.907h-12.907c-16.495 0-29.866-13.371-29.866-29.866V425.39zM166.394 302.833h12.907c16.494 0 29.866 13.371 29.866 29.866v12.907H196.26c-16.494 0-29.866-13.371-29.866-29.866v-12.907zM166.394 180.277h12.907c16.494 0 29.866 13.371 29.866 29.866v12.907H196.26c-16.494 0-29.866-13.371-29.866-29.866v-12.907zM166.394 425.39h12.907c16.494 0 29.866 13.371 29.866 29.866v12.907H196.26c-16.494 0-29.866-13.371-29.866-29.866V425.39zM270.445 364.111v12.907c0 16.495-13.371 29.866-29.866 29.866h-12.907v-12.907c0-16.495 13.371-29.866 29.866-29.866h12.907zM147.889 241.555v12.907c0 16.494-13.371 29.866-29.866 29.866h-12.907v-12.907c0-16.494 13.371-29.866 29.866-29.866h12.907zM43.838 425.39h12.907c16.494 0 29.866 13.371 29.866 29.866v12.907H73.703c-16.494 0-29.866-13.371-29.866-29.866V425.39zM43.838 302.833h12.907c16.494 0 29.866 13.371 29.866 29.866v12.907H73.703c-16.494 0-29.866-13.371-29.866-29.866v-12.907zM288.951 302.833h12.907c16.494 0 29.866 13.371 29.866 29.866v12.907h-12.907c-16.495 0-29.866-13.371-29.866-29.866v-12.907zM288.951 180.277h12.907c16.494 0 29.866 13.371 29.866 29.866v12.907h-12.907c-16.495 0-29.866-13.371-29.866-29.866v-12.907zM270.445 241.555v12.907c0 16.494-13.371 29.866-29.866 29.866h-12.907v-12.907c0-16.494 13.371-29.866 29.866-29.866h12.907zM147.889 364.111v12.907c0 16.495-13.371 29.866-29.866 29.866h-12.907v-12.907c0-16.495 13.371-29.866 29.866-29.866h12.907z" style="stroke-width:15;stroke-linecap:round;stroke-linejoin:round;stroke-miterlimit:10;" fill="none" stroke="#023345" stroke-width="15" stroke-linecap="round" stroke-linejoin="round" stroke-miterlimit="10" data-original="#000000" opacity="1" class=""></path></g></svg>