<svg xmlns="http://www.w3.org/2000/svg" version="1.1" xmlns:xlink="http://www.w3.org/1999/xlink" width="512" height="512" x="0" y="0" viewBox="0 0 64 64" style="enable-background:new 0 0 512 512" xml:space="preserve"><g><g data-name="Layer 23"><path d="M57.71 32.07H54L36 20.33a4.16 4.16 0 0 0 .25-1.39A4.21 4.21 0 0 0 33 14.86v-2.4a3 3 0 0 0 2.21-2.91V6a3 3 0 0 0-3-3h-.24a3 3 0 0 0-3 3v3.55A3 3 0 0 0 31 12.44v3.29a1 1 0 0 0 1 1 2.22 2.22 0 0 1 2.21 2.21 2.16 2.16 0 0 1 0 .23l-1.66-1.07a1 1 0 0 0-1.09 0l-1.64 1.07a2.16 2.16 0 0 1 0-.23 1 1 0 0 0-2 0 4.16 4.16 0 0 0 .18 1.39L10 32.07H6.29a1 1 0 0 0-1 1V60a1 1 0 0 0 1 1h51.42a1 1 0 0 0 1-1V33.07a1 1 0 0 0-1-1ZM30.88 6a1 1 0 0 1 1-1h.24a1 1 0 0 1 1 1v3.55a1 1 0 0 1-1 1h-.24a1 1 0 0 1-1-1ZM32 20.14l1.1.72a2.14 2.14 0 0 1-2.2 0ZM29.13 22a4.17 4.17 0 0 0 5.74 0l15.42 10.07H13.71Zm27.58 37H7.29V34.07h49.42Z" fill="#023345" opacity="1" data-original="#000000"></path><path d="M49.72 35.17a1 1 0 0 0-1 1v19.54h-1.94V36.17a1 1 0 0 0-1-1h-3.94a1 1 0 0 0-1 1v19.54h-1.93V36.17a1 1 0 0 0-1-1H34a1 1 0 0 0-1 1v19.54h-2V36.17a1 1 0 0 0-1-1h-3.91a1 1 0 0 0-1 1v19.54h-1.93V36.17a1 1 0 0 0-1-1h-3.94a1 1 0 0 0-1 1v19.54h-1.94V36.17a1 1 0 0 0-1-1h-3.93a1 1 0 0 0-1 1v20.54a1 1 0 0 0 2 0V37.17h1.94v19.54a1 1 0 0 0 1 1h3.94a1 1 0 0 0 1-1V37.17h1.94v19.54a1 1 0 0 0 1 1h3.94a1 1 0 0 0 1-1V37.17H29v19.54a1 1 0 0 0 1 1h4a1 1 0 0 0 1-1V37.17h1.94v19.54a1 1 0 0 0 1 1h3.94a1 1 0 0 0 1-1V37.17h1.94v19.54a1 1 0 0 0 1 1h3.94a1 1 0 0 0 1-1V37.17h2.94a1 1 0 0 0 0-2Z" fill="#023345" opacity="1" data-original="#000000"></path><path d="M53.65 38.61a1 1 0 0 0-1 1v17.1a1 1 0 0 0 2 0v-17.1a1 1 0 0 0-1-1Z" fill="#023345" opacity="1" data-original="#000000"></path></g></g></svg>