          <svg xmlns="http://www.w3.org/2000/svg" version="1.1" xmlns:xlink="http://www.w3.org/1999/xlink" width="512" height="512" x="0" y="0" viewBox="0 0 512 512" xml:space="preserve" class=""><g transform="matrix(-1,0,0,1,505.7190189361572,0)"><path d="M500.862 218.809v-32.655h-.012a7.976 7.976 0 0 0-.659-3.205 7.994 7.994 0 0 0-7.323-4.789l-.039.001-80.609.391 13.803-14.742a7.995 7.995 0 0 0 2.159-5.464V126.37h-.013a7.97 7.97 0 0 0-.647-3.18 7.992 7.992 0 0 0-7.334-4.814h-35.919l41.754-44.595a7.995 7.995 0 0 0 2.159-5.464V35.663h-.012a7.974 7.974 0 0 0-.658-3.205 7.994 7.994 0 0 0-7.323-4.789l-.038.001-143.915.68a7.992 7.992 0 0 0-5.797 2.529L110.395 201.78l.006.005a7.956 7.956 0 0 0-2.165 5.458v31.975c0 1.408.367 2.73 1.007 3.879L7.015 352.271l.006.006a7.956 7.956 0 0 0-2.165 5.458v31.975a7.994 7.994 0 0 0 7.994 7.994h35.93L7.016 442.3l.006.005a7.956 7.956 0 0 0-2.165 5.458v32.003a7.994 7.994 0 0 0 7.994 7.994h143.943a7.963 7.963 0 0 0 5.83-2.537l.006.006 18.258-19.505v14.042a7.994 7.994 0 0 0 7.994 7.994h143.943c2.302 0 4.37-.979 5.829-2.536l.006.006 160.044-170.929a7.995 7.995 0 0 0 2.159-5.464v-31.975h-.013a7.97 7.97 0 0 0-.647-3.18 7.992 7.992 0 0 0-7.334-4.814H456.94l41.763-44.596a7.988 7.988 0 0 0 2.159-5.463zm-26.465-24.572L329.35 349.741H207.317l11.704-12.5h41.151a7.962 7.962 0 0 0 5.829-2.536l.006.006 131.175-140.099zM164.787 459.53v-8.608l49.839-53.218h8.036zM31.288 439.769l29.552-31.555v31.555zm45.54-42.065h15.988v42.065H76.828zm50.464-150.491h24.868l-41.765 44.596.006.005a7.956 7.956 0 0 0-2.165 5.458v31.975a7.994 7.994 0 0 0 7.994 7.994h48.742l-11.654 12.5H31.287zm-3.069-31.975h127.956v15.986H124.223zm200.608 166.478H196.875V365.73h127.956zm-160.044-20.832 22.043-23.643h8.137l-30.179 32.235v-8.592zm-40.564-39.631v-15.986h127.956v15.986zm55.985-31.975v-42.065h15.987v42.065zm-15.988 0h-29.552l29.552-31.556zm47.962-42.065h27.915l-27.915 29.822zm-75.443 150.491-27.937 29.83v-29.83zm22.179-.295a7.972 7.972 0 0 0 3.705-2.242l.006.005 18.259-19.502v14.04a7.994 7.994 0 0 0 7.994 7.994h3.842l-39.395 42.065h-34.082zm109.929.295v42.065H252.86v-42.065zm15.987 0h27.953l-27.953 29.835zm-16.667-97.273 144.028-153.827v8.584L268.167 309.013zm133.586-166.066L256.707 289.278h-34.086l39.642-42.351a7.973 7.973 0 0 0 3.739-2.25l.006.006 103.291-110.317h32.454zm-133.586 84.62v-8.592L412.195 55.955v9.205zM279.754 44.32l121.967-.576L256.697 199.25h-122.03zM20.844 365.729H148.8v15.986H20.844zM148.8 471.772H20.844v-16.015H148.8zm88.072-65.853v33.851h-31.688zm87.959 65.853H196.875v-16.015h127.956zm15.987-12.239v-8.612c74.108-79.128 122.129-130.409 144.057-153.827v8.584zm133.615-174.676A2632013.87 2632013.87 0 0 1 329.36 439.769h-34.075l39.695-42.368a7.979 7.979 0 0 0 3.674-2.233l.006.005 103.309-110.316zM340.818 369.48v-8.595l144.057-154.441v9.208z" fill="#023345" opacity="1" data-original="#000000"></path></g></svg>