<svg xmlns="http://www.w3.org/2000/svg" version="1.1" xmlns:xlink="http://www.w3.org/1999/xlink" width="512" height="512" x="0" y="0" viewBox="0 0 682.667 682.667" style="enable-background:new 0 0 512 512" xml:space="preserve"><g><defs><clipPath id="a" clipPathUnits="userSpaceOnUse"><path d="M0 512h512V0H0Z" fill="#0033a0" opacity="1" data-original="#000000"></path></clipPath></defs><g clip-path="url(#a)" transform="matrix(1.33333 0 0 -1.33333 0 682.667)"><path d="M0 0c0-24.767-20.077-44.845-44.845-44.845-24.766 0-44.844 20.078-44.844 44.845s20.078 44.844 44.844 44.844C-20.077 44.844 0 24.767 0 0Z" style="stroke-width:15;stroke-linecap:round;stroke-linejoin:round;stroke-miterlimit:10;stroke-dasharray:none;stroke-opacity:1" transform="translate(421.554 139.295)" fill="none" stroke="#0033a0" stroke-width="15" stroke-linecap="round" stroke-linejoin="round" stroke-miterlimit="10" stroke-dasharray="none" stroke-opacity="" data-original="#000000" opacity="1"></path><path d="M0 0c0-9.125-7.396-16.522-16.521-16.522S-33.043-9.125-33.043 0c0 9.125 7.397 16.521 16.522 16.521C-7.396 16.521 0 9.125 0 0Z" style="stroke-width:15;stroke-linecap:round;stroke-linejoin:round;stroke-miterlimit:10;stroke-dasharray:none;stroke-opacity:1" transform="translate(393.23 139.295)" fill="none" stroke="#0033a0" stroke-width="15" stroke-linecap="round" stroke-linejoin="round" stroke-miterlimit="10" stroke-dasharray="none" stroke-opacity="" data-original="#000000" opacity="1"></path><path d="M0 0c0-24.767-20.077-44.845-44.845-44.845-24.766 0-44.843 20.078-44.843 44.845s20.077 44.844 44.843 44.844C-20.077 44.844 0 24.767 0 0Z" style="stroke-width:15;stroke-linecap:round;stroke-linejoin:round;stroke-miterlimit:10;stroke-dasharray:none;stroke-opacity:1" transform="translate(130.273 139.295)" fill="none" stroke="#0033a0" stroke-width="15" stroke-linecap="round" stroke-linejoin="round" stroke-miterlimit="10" stroke-dasharray="none" stroke-opacity="" data-original="#000000" opacity="1"></path><path d="M0 0c0-9.125-7.397-16.522-16.522-16.522-9.124 0-16.522 7.397-16.522 16.522 0 9.125 7.398 16.521 16.522 16.521C-7.397 16.521 0 9.125 0 0Z" style="stroke-width:15;stroke-linecap:round;stroke-linejoin:round;stroke-miterlimit:10;stroke-dasharray:none;stroke-opacity:1" transform="translate(101.951 139.295)" fill="none" stroke="#0033a0" stroke-width="15" stroke-linecap="round" stroke-linejoin="round" stroke-miterlimit="10" stroke-dasharray="none" stroke-opacity="" data-original="#000000" opacity="1"></path><path d="M0 0h-76.847a44.646 44.646 0 0 0 4.017-18.544 44.643 44.643 0 0 0-4.017-18.545H0c5.563 0 10.115 4.552 10.115 10.115v16.859C10.115-4.552 5.563 0 0 0Z" style="stroke-width:15;stroke-linecap:round;stroke-linejoin:round;stroke-miterlimit:10;stroke-dasharray:none;stroke-opacity:1" transform="translate(494.384 157.84)" fill="none" stroke="#0033a0" stroke-width="15" stroke-linecap="round" stroke-linejoin="round" stroke-miterlimit="10" stroke-dasharray="none" stroke-opacity="" data-original="#000000" opacity="1"></path><path d="M0 0a44.618 44.618 0 0 0 6.932 23.939h-30.07c-5.493 0-9.946-4.453-9.946-9.946V-8.598c0-5.493 4.453-9.947 9.946-9.947H4.016A44.665 44.665 0 0 0 0 0Z" style="stroke-width:15;stroke-linecap:round;stroke-linejoin:round;stroke-miterlimit:10;stroke-dasharray:none;stroke-opacity:1" transform="translate(40.585 139.295)" fill="none" stroke="#0033a0" stroke-width="15" stroke-linecap="round" stroke-linejoin="round" stroke-miterlimit="10" stroke-dasharray="none" stroke-opacity="" data-original="#000000" opacity="1"></path><path d="m0 0-50.696 50.013a7.134 7.134 0 0 1-5.01 2.055h-54.902a7.133 7.133 0 0 1-7.134-7.133V6.603a7.133 7.133 0 0 1 7.134-7.134h52.942a7.135 7.135 0 0 0 4.642-1.717l28.362-24.3a7.135 7.135 0 0 1 4.641-1.716H-5.01a7.134 7.134 0 0 1 7.134 7.134v16.052A7.135 7.135 0 0 1 0 0Z" style="stroke-width:15;stroke-linecap:round;stroke-linejoin:round;stroke-miterlimit:10;stroke-dasharray:none;stroke-opacity:1" transform="translate(457.868 241.485)" fill="none" stroke="#0033a0" stroke-width="15" stroke-linecap="round" stroke-linejoin="round" stroke-miterlimit="10" stroke-dasharray="none" stroke-opacity="" data-original="#000000" opacity="1"></path><path d="M0 0h9.778" style="stroke-width:15;stroke-linecap:round;stroke-linejoin:round;stroke-miterlimit:10;stroke-dasharray:none;stroke-opacity:1" transform="translate(346.026 218.194)" fill="none" stroke="#0033a0" stroke-width="15" stroke-linecap="round" stroke-linejoin="round" stroke-miterlimit="10" stroke-dasharray="none" stroke-opacity="" data-original="#000000" opacity="1"></path><path d="M0 0a4.89 4.89 0 0 1-4.889-4.89v-25.372h29.728C32.786-17.703 46.79-9.357 62.751-9.357c15.962 0 29.966-8.346 37.913-20.905H282.55V0Z" style="stroke-width:15;stroke-linecap:round;stroke-linejoin:round;stroke-miterlimit:10;stroke-dasharray:none;stroke-opacity:1" transform="translate(22.678 193.496)" fill="none" stroke="#0033a0" stroke-width="15" stroke-linecap="round" stroke-linejoin="round" stroke-miterlimit="10" stroke-dasharray="none" stroke-opacity="" data-original="#000000" opacity="1"></path><path d="M0 0h-98.399c-3.747 0-6.814-3.066-6.814-6.813v-98.4c0-3.747 3.067-6.814 6.814-6.814H0c3.747 0 6.813 3.067 6.813 6.814v98.4C6.813-3.066 3.747 0 0 0Z" style="stroke-width:15;stroke-linecap:round;stroke-linejoin:round;stroke-miterlimit:10;stroke-dasharray:none;stroke-opacity:1" transform="translate(154.102 305.523)" fill="none" stroke="#0033a0" stroke-width="15" stroke-linecap="round" stroke-linejoin="round" stroke-miterlimit="10" stroke-dasharray="none" stroke-opacity="" data-original="#000000" opacity="1"></path><path d="M0 0v-34.323c0-1.222 1-2.223 2.223-2.223h32.1a2.23 2.23 0 0 1 2.223 2.223V0Z" style="stroke-width:15;stroke-linecap:round;stroke-linejoin:round;stroke-miterlimit:10;stroke-dasharray:none;stroke-opacity:1" transform="translate(86.63 305.523)" fill="none" stroke="#0033a0" stroke-width="15" stroke-linecap="round" stroke-linejoin="round" stroke-miterlimit="10" stroke-dasharray="none" stroke-opacity="" data-original="#000000" opacity="1"></path><path d="M0 0h-98.4c-3.747 0-6.814-3.066-6.814-6.813v-98.4c0-3.747 3.067-6.814 6.814-6.814H0c3.747 0 6.813 3.067 6.813 6.814v98.4C6.813-3.066 3.747 0 0 0Z" style="stroke-width:15;stroke-linecap:round;stroke-linejoin:round;stroke-miterlimit:10;stroke-dasharray:none;stroke-opacity:1" transform="translate(210.116 417.55)" fill="none" stroke="#0033a0" stroke-width="15" stroke-linecap="round" stroke-linejoin="round" stroke-miterlimit="10" stroke-dasharray="none" stroke-opacity="" data-original="#000000" opacity="1"></path><path d="M0 0v-34.323c0-1.222 1-2.223 2.222-2.223h32.101a2.23 2.23 0 0 1 2.222 2.223V0Z" style="stroke-width:15;stroke-linecap:round;stroke-linejoin:round;stroke-miterlimit:10;stroke-dasharray:none;stroke-opacity:1" transform="translate(198.657 305.523)" fill="none" stroke="#0033a0" stroke-width="15" stroke-linecap="round" stroke-linejoin="round" stroke-miterlimit="10" stroke-dasharray="none" stroke-opacity="" data-original="#000000" opacity="1"></path><path d="M0 0h-98.4c-3.747 0-6.814-3.066-6.814-6.813v-98.4c0-3.747 3.067-6.814 6.814-6.814H0c3.747 0 6.813 3.067 6.813 6.814v98.4C6.813-3.066 3.747 0 0 0Z" style="stroke-width:15;stroke-linecap:round;stroke-linejoin:round;stroke-miterlimit:10;stroke-dasharray:none;stroke-opacity:1" transform="translate(266.13 305.523)" fill="none" stroke="#0033a0" stroke-width="15" stroke-linecap="round" stroke-linejoin="round" stroke-miterlimit="10" stroke-dasharray="none" stroke-opacity="" data-original="#000000" opacity="1"></path><path d="M0 0v-34.323c0-1.222 1-2.223 2.223-2.223h32.1a2.23 2.23 0 0 1 2.222 2.223V0Z" style="stroke-width:15;stroke-linecap:round;stroke-linejoin:round;stroke-miterlimit:10;stroke-dasharray:none;stroke-opacity:1" transform="translate(142.643 417.55)" fill="none" stroke="#0033a0" stroke-width="15" stroke-linecap="round" stroke-linejoin="round" stroke-miterlimit="10" stroke-dasharray="none" stroke-opacity="" data-original="#000000" opacity="1"></path><path d="M0 0h69.977v42.484h-181.886a44.617 44.617 0 0 0 6.931-23.939A44.665 44.665 0 0 0-108.994 0H-35" style="stroke-width:15;stroke-linecap:round;stroke-linejoin:round;stroke-miterlimit:10;stroke-dasharray:none;stroke-opacity:1" transform="translate(235.251 120.75)" fill="none" stroke="#0033a0" stroke-width="15" stroke-linecap="round" stroke-linejoin="round" stroke-miterlimit="10" stroke-dasharray="none" stroke-opacity="" data-original="#000000" opacity="1"></path><path d="M0 0v23.808a24.097 24.097 0 0 1-7.175 17.156l-59.939 59.131a19.476 19.476 0 0 1-13.675 5.61h-91.677c-6.983 0-12.644-5.661-12.644-12.644V-97.444h30.653c-3.125 6.869-4.585 14.655-3.813 22.855 1.994 21.169 18.949 38.235 40.109 40.311 20.053 1.968 37.723-9.29 45.36-26.077v0H0V-35" style="stroke-width:15;stroke-linecap:round;stroke-linejoin:round;stroke-miterlimit:10;stroke-dasharray:none;stroke-opacity:1" transform="translate(490.338 218.194)" fill="none" stroke="#0033a0" stroke-width="15" stroke-linecap="round" stroke-linejoin="round" stroke-miterlimit="10" stroke-dasharray="none" stroke-opacity="" data-original="#000000" opacity="1"></path></g></g></svg>