<svg xmlns="http://www.w3.org/2000/svg" version="1.1" xmlns:xlink="http://www.w3.org/1999/xlink" width="512" height="512" x="0" y="0" viewBox="0 0 682.667 682.667" style="enable-background:new 0 0 512 512" xml:space="preserve" class=""><g><defs><clipPath id="a" clipPathUnits="userSpaceOnUse"><path d="M0 512h512V0H0Z" fill="#023345" opacity="1" data-original="#000000" class=""></path></clipPath></defs><g clip-path="url(#a)" transform="matrix(1.33333 0 0 -1.33333 0 682.667)"><path d="M0 0c-5.45 0-9.89-4.37-10-9.8v-.2c0-5.52 4.48-10 10-10s10 4.48 10 10v.2C9.89-4.37 5.45 0 0 0" style="fill-opacity:1;fill-rule:nonzero;stroke:none" transform="translate(113 106)" fill="#023345" data-original="#000000" class="" opacity="1"></path><path d="M0 0c45.64-9.26 80-49.62 80-98 0-55.23-44.77-100-100-100-10.97 0-21.53 1.77-31.41 5.03-27.14 8.97-49.13 29.25-60.39 55.25-5.28 12.17-8.2 25.6-8.2 39.72 0 7.08.73 13.98 2.13 20.64 5.17 24.64 19.42 45.95 39.08 60.25C-62.29-5.08-41.98 2-20 2c2.13 0 4.24-.07 6.33-.2C-9.02 1.51-4.46.91 0 0Z" style="stroke-width:20;stroke-linecap:round;stroke-linejoin:round;stroke-miterlimit:4;stroke-dasharray:none;stroke-opacity:1" transform="translate(422 234)" fill="none" stroke="#023345" stroke-width="20" stroke-linecap="round" stroke-linejoin="round" stroke-miterlimit="4" stroke-dasharray="none" stroke-opacity="" data-original="#000000" opacity="1"></path><path d="M0 0v-20" style="stroke-width:20;stroke-linecap:round;stroke-linejoin:round;stroke-miterlimit:4;stroke-dasharray:none;stroke-opacity:1" transform="translate(402 196)" fill="none" stroke="#023345" stroke-width="20" stroke-linecap="round" stroke-linejoin="round" stroke-miterlimit="4" stroke-dasharray="none" stroke-opacity="" data-original="#000000" opacity="1"></path><path d="M0 0v20" style="stroke-width:20;stroke-linecap:round;stroke-linejoin:round;stroke-miterlimit:4;stroke-dasharray:none;stroke-opacity:1" transform="translate(402 76)" fill="none" stroke="#023345" stroke-width="20" stroke-linecap="round" stroke-linejoin="round" stroke-miterlimit="4" stroke-dasharray="none" stroke-opacity="" data-original="#000000" opacity="1"></path><path d="M0 0c3.62-3.62 8.62-5.86 14.14-5.86 11.049 0 20 8.95 20 20 0 11.049-8.951 20-20 20-11.05 0-20 8.95-20 20 0 11.049 8.95 20 20 20a19.938 19.938 0 0 0 14.139-5.861" style="stroke-width:20;stroke-linecap:round;stroke-linejoin:round;stroke-miterlimit:4;stroke-dasharray:none;stroke-opacity:1" transform="translate(387.86 101.86)" fill="none" stroke="#023345" stroke-width="20" stroke-linecap="round" stroke-linejoin="round" stroke-miterlimit="4" stroke-dasharray="none" stroke-opacity="" data-original="#000000" opacity="1"></path><path d="M0 0c0-22.09-47.77-40-103-40S-206-22.09-206 0s47.77 40 103 40S0 22.09 0 0Z" style="stroke-width:20;stroke-linecap:round;stroke-linejoin:round;stroke-miterlimit:4;stroke-dasharray:none;stroke-opacity:1" transform="translate(216 316)" fill="none" stroke="#023345" stroke-width="20" stroke-linecap="round" stroke-linejoin="round" stroke-miterlimit="4" stroke-dasharray="none" stroke-opacity="" data-original="#000000" opacity="1"></path><path d="M0 0c0-22.09 50.77-40 106-40 7.28 0 14.37.31 21.21.9" style="stroke-width:20;stroke-linecap:round;stroke-linejoin:round;stroke-miterlimit:4;stroke-dasharray:none;stroke-opacity:1" transform="translate(216 256)" fill="none" stroke="#023345" stroke-width="20" stroke-linecap="round" stroke-linejoin="round" stroke-miterlimit="4" stroke-dasharray="none" stroke-opacity="" data-original="#000000" opacity="1"></path><path d="M0 0c0-22.09 47.77-40 103-40S206-22.09 206 0" style="stroke-width:20;stroke-linecap:round;stroke-linejoin:round;stroke-miterlimit:4;stroke-dasharray:none;stroke-opacity:1" transform="translate(10 256)" fill="none" stroke="#023345" stroke-width="20" stroke-linecap="round" stroke-linejoin="round" stroke-miterlimit="4" stroke-dasharray="none" stroke-opacity="" data-original="#000000" opacity="1"></path><path d="M0 0c0-19.65 41.43-35.99 88.13-39.36" style="stroke-width:20;stroke-linecap:round;stroke-linejoin:round;stroke-miterlimit:4;stroke-dasharray:none;stroke-opacity:1" transform="translate(216 196)" fill="none" stroke="#023345" stroke-width="20" stroke-linecap="round" stroke-linejoin="round" stroke-miterlimit="4" stroke-dasharray="none" stroke-opacity="" data-original="#000000" opacity="1"></path><path d="M0 0c0-22.09 47.77-40 103-40S206-22.09 206 0" style="stroke-width:20;stroke-linecap:round;stroke-linejoin:round;stroke-miterlimit:4;stroke-dasharray:none;stroke-opacity:1" transform="translate(10 196)" fill="none" stroke="#023345" stroke-width="20" stroke-linecap="round" stroke-linejoin="round" stroke-miterlimit="4" stroke-dasharray="none" stroke-opacity="" data-original="#000000" opacity="1"></path><path d="M0 0c0-.27.01-.55.02-.82.01-.2.03-.39.05-.59l.03-.26c.02-.21.05-.42.08-.62C2.62-17.73 29.4-30.83 63.14-36.7" style="stroke-width:20;stroke-linecap:round;stroke-linejoin:round;stroke-miterlimit:4;stroke-dasharray:none;stroke-opacity:1" transform="translate(10 136)" fill="none" stroke="#023345" stroke-width="20" stroke-linecap="round" stroke-linejoin="round" stroke-miterlimit="4" stroke-dasharray="none" stroke-opacity="" data-original="#000000" opacity="1"></path><path d="M0 0c0-20.49 44.53-37.39 94.2-39.72" style="stroke-width:20;stroke-linecap:round;stroke-linejoin:round;stroke-miterlimit:4;stroke-dasharray:none;stroke-opacity:1" transform="translate(216 136)" fill="none" stroke="#023345" stroke-width="20" stroke-linecap="round" stroke-linejoin="round" stroke-miterlimit="4" stroke-dasharray="none" stroke-opacity="" data-original="#000000" opacity="1"></path><path d="M0 0c33.74 5.87 60.52 18.97 62.96 34.41.03.2.06.41.08.62l.03.26c.02.2.04.391.05.59.01.27.02.551.02.82" style="stroke-width:20;stroke-linecap:round;stroke-linejoin:round;stroke-miterlimit:4;stroke-dasharray:none;stroke-opacity:1" transform="translate(152.86 99.3)" fill="none" stroke="#023345" stroke-width="20" stroke-linecap="round" stroke-linejoin="round" stroke-miterlimit="4" stroke-dasharray="none" stroke-opacity="" data-original="#000000" opacity="1"></path><path d="M0 0c0-22.09-47.77-40-103-40S-206-22.09-206 0v240" style="stroke-width:20;stroke-linecap:round;stroke-linejoin:round;stroke-miterlimit:4;stroke-dasharray:none;stroke-opacity:1" transform="translate(216 76)" fill="none" stroke="#023345" stroke-width="20" stroke-linecap="round" stroke-linejoin="round" stroke-miterlimit="4" stroke-dasharray="none" stroke-opacity="" data-original="#000000" opacity="1"></path><path d="M0 0c0-22.09-47.77-40-103-40S-206-22.09-206 0" style="stroke-width:20;stroke-linecap:round;stroke-linejoin:round;stroke-miterlimit:4;stroke-dasharray:none;stroke-opacity:1" transform="translate(422 316)" fill="none" stroke="#023345" stroke-width="20" stroke-linecap="round" stroke-linejoin="round" stroke-miterlimit="4" stroke-dasharray="none" stroke-opacity="" data-original="#000000" opacity="1"></path><path d="M0 0c0-22.09-47.77-40-103-40S-206-22.09-206 0" style="stroke-width:20;stroke-linecap:round;stroke-linejoin:round;stroke-miterlimit:4;stroke-dasharray:none;stroke-opacity:1" transform="translate(422 376)" fill="none" stroke="#023345" stroke-width="20" stroke-linecap="round" stroke-linejoin="round" stroke-miterlimit="4" stroke-dasharray="none" stroke-opacity="" data-original="#000000" opacity="1"></path><path d="M0 0c0-22.09-47.77-40-103-40S-206-22.09-206 0s47.77 40 103 40S0 22.09 0 0Z" style="stroke-width:20;stroke-linecap:round;stroke-linejoin:round;stroke-miterlimit:4;stroke-dasharray:none;stroke-opacity:1" transform="translate(422 436)" fill="none" stroke="#023345" stroke-width="20" stroke-linecap="round" stroke-linejoin="round" stroke-miterlimit="4" stroke-dasharray="none" stroke-opacity="" data-original="#000000" opacity="1"></path><path d="M0 0c0-7.37-4.98-14.27-13.67-20.2" style="stroke-width:20;stroke-linecap:round;stroke-linejoin:round;stroke-miterlimit:4;stroke-dasharray:none;stroke-opacity:1" transform="translate(422 256)" fill="none" stroke="#023345" stroke-width="20" stroke-linecap="round" stroke-linejoin="round" stroke-miterlimit="4" stroke-dasharray="none" stroke-opacity="" data-original="#000000" opacity="1"></path><path d="M0 0v-202" style="stroke-width:20;stroke-linecap:round;stroke-linejoin:round;stroke-miterlimit:4;stroke-dasharray:none;stroke-opacity:1" transform="translate(422 436)" fill="none" stroke="#023345" stroke-width="20" stroke-linecap="round" stroke-linejoin="round" stroke-miterlimit="4" stroke-dasharray="none" stroke-opacity="" data-original="#000000" opacity="1"></path><path d="M0 0v-360c0-22.09 47.77-40 103-40 17.64 0 37.21 1.83 51.59 5.03" style="stroke-width:20;stroke-linecap:round;stroke-linejoin:round;stroke-miterlimit:4;stroke-dasharray:none;stroke-opacity:1" transform="translate(216 436)" fill="none" stroke="#023345" stroke-width="20" stroke-linecap="round" stroke-linejoin="round" stroke-miterlimit="4" stroke-dasharray="none" stroke-opacity="" data-original="#000000" opacity="1"></path></g></g></svg>