<svg xmlns="http://www.w3.org/2000/svg" version="1.1" xmlns:xlink="http://www.w3.org/1999/xlink" width="512" height="512" x="0" y="0" viewBox="0 0 6.827 6.827" style="enable-background:new 0 0 512 512" xml:space="preserve" fill-rule="evenodd"><g><path d="M4.066 2.468a.07.07 0 0 1-.05-.12l.65-.65a.07.07 0 0 1 .099.1l-.65.65a.07.07 0 0 1-.05.02zM3.223 1.78a.07.07 0 0 1-.05-.12l.35-.35a.112.112 0 0 0-.157-.159l-.499.499a.07.07 0 0 1-.1-.1l.5-.498a.252.252 0 0 1 .356.356l-.35.35a.07.07 0 0 1-.05.021zM2.356 1.547a.07.07 0 0 1-.05-.12l.385-.384a.112.112 0 0 0-.158-.157L2 1.418a.07.07 0 0 1-.1-.1l.533-.531a.25.25 0 0 1 .178-.074.252.252 0 0 1 .178.43l-.384.383a.07.07 0 0 1-.05.021zM4.323 5.738h2.014V3.737H4.323zm2.084.14H4.253a.07.07 0 0 1-.07-.07V3.667a.07.07 0 0 1 .07-.07h2.154a.07.07 0 0 1 .07.07v2.14a.07.07 0 0 1-.07.071z" fill="#023345" opacity="1" data-original="#000000"></path><path d="M5.33 3.994a.07.07 0 0 1 .047.019l.23.21v-.486h-.554v.485l.23-.21a.07.07 0 0 1 .047-.018zm-.347.457a.07.07 0 0 1-.07-.07v-.714a.07.07 0 0 1 .07-.07h.694a.07.07 0 0 1 .07.07v.714a.07.07 0 0 1-.117.052l-.3-.274-.3.274a.07.07 0 0 1-.047.018zM3.017 2.742a.07.07 0 0 1-.035-.01L1.084 1.636a.07.07 0 0 1-.014-.11l.339-.34a.07.07 0 0 1 .068-.018l2.397.643a.07.07 0 0 1-.036.135L1.48 1.314l-.247.247 1.82 1.05a.07.07 0 0 1-.036.13z" fill="#023345" opacity="1" data-original="#000000"></path><path d="M4.868 3.737a.07.07 0 0 1-.067-.052l-.284-1.06a.07.07 0 0 1 .135-.036l.284 1.06a.07.07 0 0 1-.068.088zm-.615.579a.07.07 0 0 1-.06-.035l-.462-.8a.07.07 0 0 1 .121-.07l.462.8a.07.07 0 0 1-.06.105z" fill="#023345" opacity="1" data-original="#000000"></path><path d="M5.095 1.143a.929.929 0 0 0-.396.118c-.174.088-.281.19-.417.318l-.073.068-.327.303c-.999.92-1.796 1.655-2.393 3.024a7.199 7.199 0 0 0 .72-.364c.938-.547 1.571-1.233 2.304-2.029l.303-.327.069-.073c.128-.136.23-.243.318-.418.131-.259.153-.47.06-.563-.038-.038-.096-.057-.169-.057zM1.357 5.176a.07.07 0 0 1-.065-.097c.616-1.5 1.445-2.265 2.495-3.232l.327-.303.072-.067c.138-.131.257-.244.45-.342.32-.162.585-.175.726-.034.14.14.128.405-.034.726-.097.193-.21.312-.341.45l-.068.072-.302.327c-.741.804-1.38 1.498-2.337 2.055a6.95 6.95 0 0 1-.896.44.07.07 0 0 1-.027.005z" fill="#023345" opacity="1" data-original="#000000"></path><path d="M1.52 4.806a.07.07 0 0 1-.034-.01L.385 4.16a.07.07 0 0 1-.015-.11l.197-.196a.07.07 0 0 1 .067-.018l1.177.315a.07.07 0 0 1-.036.135L.637 3.982l-.103.103 1.022.59a.07.07 0 0 1-.035.13zM2.364 6.114h-.01a.07.07 0 0 1-.051-.035l-.636-1.101a.07.07 0 0 1 .122-.07l.59 1.021.103-.103-.305-1.137a.07.07 0 1 1 .135-.037l.316 1.177a.07.07 0 0 1-.019.068l-.196.196a.07.07 0 0 1-.05.02z" fill="#023345" opacity="1" data-original="#000000"></path></g></svg>