<svg xmlns="http://www.w3.org/2000/svg" version="1.1" xmlns:xlink="http://www.w3.org/1999/xlink" width="512" height="512" x="0" y="0" viewBox="0 0 90 90" style="enable-background:new 0 0 512 512" xml:space="preserve" class=""><g><path d="M44.643 41.38 26.59 47.661a1.136 1.136 0 0 0-.771 1.067v6.818c-.016 1.536 2.297 1.536 2.277 0v-6.011l16.916-5.885 16.928 5.885v6.011c-.068 1.578 2.338 1.578 2.266 0v-6.818c0-.479-.303-.912-.762-1.067L45.393 41.38c-.313-.109-.444-.105-.75 0z" fill="#023345" opacity="1" data-original="#000000"></path><path fill-rule="evenodd" d="M42.396 7.926c6.068-1.437 12.131 2.261 13.584 8.261 1.447 6-2.275 12.005-8.344 13.437-6.072 1.432-12.135-2.261-13.584-8.261-1.452-6 2.272-12.003 8.344-13.437zm-.531-2.202c-7.254 1.713-11.76 8.958-10.02 16.161 1.738 7.203 9.066 11.656 16.322 9.943s11.756-8.959 10.016-16.162c-1.74-7.202-9.068-11.656-16.318-9.942z" clip-rule="evenodd" fill="#023345" opacity="1" data-original="#000000"></path><path d="M33.58 37.374h22.869c3.041 0 5.006.532 6.619 1.708 1.615 1.177 2.965 3.12 4.443 6.172l6.896 14.24c.957 1.975 1.176 3.479.863 4.536-.313 1.063-1.15 1.934-3.01 2.651l-7.28 2.829c-1.197.468-2.094.345-2.844-.057-.744-.401-1.338-1.146-1.65-2.037-.625-1.785-.234-3.916 2.207-4.963 2.168-.932 5.943-2.463 5.943-2.463 1.553-.495.609-2.823-.85-2.099 0 0-3.77 1.531-5.988 2.484-3.459 1.485-4.412 5.063-3.453 7.792.125.364.291.714.479 1.047-2.896 5.536-7.74 9.65-13.813 12.963-6.072-3.313-10.912-7.427-13.813-12.963.193-.333.354-.683.484-1.047.959-2.729.006-6.307-3.459-7.792-2.213-.953-5.984-2.484-5.984-2.484-1.463-.724-2.406 1.604-.848 2.099 0 0 3.77 1.532 5.941 2.463 2.438 1.047 2.834 3.178 2.209 4.963-.313.891-.912 1.636-1.656 2.037-.744.402-1.646.525-2.844.057l-7.275-2.828c-1.859-.718-2.699-1.589-3.012-2.651-.316-1.058-.094-2.562.859-4.536l6.906-14.24c1.475-3.052 2.824-4.995 4.438-6.172 1.617-1.177 3.58-1.709 6.623-1.709zm0-2.26c-3.313 0-5.875.609-7.959 2.131-2.084 1.52-3.6 3.827-5.146 7.02l-6.895 14.24c-1.09 2.249-1.553 4.317-1.006 6.172.553 1.854 2.119 3.249 4.375 4.125l7.275 2.828c1.73.672 3.418.531 4.734-.178.225-.12.438-.265.641-.417 3.297 5.833 8.531 10.152 14.881 13.511a1.13 1.13 0 0 0 1.063 0c6.35-3.359 11.588-7.678 14.881-13.511.207.152.416.298.645.417 1.313.708 3.006.85 4.734.178l7.281-2.828c2.256-.876 3.818-2.272 4.365-4.125.547-1.854.094-3.923-1-6.172l-6.896-14.24c-1.547-3.192-3.066-5.5-5.15-7.02-2.078-1.521-4.641-2.131-7.953-2.131z" fill="#023345" opacity="1" data-original="#000000"></path><path fill-rule="evenodd" d="M54.549 58.114 42.814 69.953c-.078.078-.172.078-.25 0l-7.078-7.079 2.197-2.25 4.213 4.224a1.144 1.144 0 0 0 1.605 0l8.707-8.713zm-2.25-4.369a2.801 2.801 0 0 0-1.684.781l-7.91 7.911-3.412-3.407c-.932-.943-2.51-.943-3.443 0l-1.973 2.005a2.447 2.447 0 0 0 0 3.434l7.094 7.093c1.082 1.083 2.359 1.094 3.438.01l11.75-11.859c.969-.979.77-2.594-.012-3.422l-1.941-1.922c-.554-.541-1.282-.692-1.907-.624z" clip-rule="evenodd" fill="#023345" opacity="1" data-original="#000000"></path></g></svg>