<svg xmlns="http://www.w3.org/2000/svg" version="1.1" xmlns:xlink="http://www.w3.org/1999/xlink" width="512" height="512" x="0" y="0" viewBox="0 0 512 512" style="enable-background:new 0 0 512 512" xml:space="preserve" class=""><g><path d="M488 0h-18.527c-6.809 0-12.368 5.547-12.368 12.367v94.656H227.801V10.801c0-5.508-4.473-9.977-9.965-9.977H73.57c-5.496 0-9.976 4.469-9.976 9.977v96.222H43.258V68.055a7.536 7.536 0 0 0-7.531-7.535 7.53 7.53 0 0 0-7.536 7.535V496.93h-13.12V15.07h13.12v22.844a7.524 7.524 0 0 0 7.536 7.535 7.531 7.531 0 0 0 7.53-7.535V12.367C43.258 5.547 37.704 0 30.892 0H12.367C5.555 0 0 5.547 0 12.367v487.266C0 506.453 5.555 512 12.367 512H488c6.813 0 12.367-5.547 12.367-12.367V12.367C500.367 5.547 494.812 0 488 0zM132.328 15.895h26.746v24.351l-7.715-6.039a9.19 9.19 0 0 0-11.312 0l-7.719 6.04zm-53.664 0h38.598V52.34c0 5.055 4.117 9.172 9.18 9.172 4.097 0 4.87-1.34 19.261-12.598l13.61 10.652c6.007 4.692 14.832.395 14.832-7.226V15.895h38.585v91.128H78.664zM43.258 122.094h413.847v13.12H43.258zm0 28.187h413.847v137.606h-63.55V172.195c0-6.14-5.004-11.133-11.14-11.133H117.952c-6.137 0-11.14 4.993-11.14 11.133v115.692H43.258zm189.765 78.313 17.16-13.422 17.16 13.422c6.192 4.847 15.34.433 15.34-7.473v-44.988h95.801v111.754H121.883V176.133h95.8v44.988c0 7.848 9.067 12.348 15.34 7.473zm-.27-18.918v-33.543h34.86v33.543c-12.218-9.559-13.254-11.082-17.43-11.082-4.218 0-5.296 1.59-17.43 11.082zM43.259 302.957h413.847v13.11H43.258zm291.726 74.793c4.106 0 4.805-1.277 19.68-12.918l14.016 10.961v.008c6.07 4.715 14.879.375 14.879-7.262v-37.402h32.609V468.75H293.16V331.137h32.613v37.402c0 5.082 4.13 9.211 9.211 9.211zm5.856-21.238v-25.375h27.648v25.375c-8.36-6.535-9.797-8.328-13.824-8.328-3.988 0-5.25 1.628-13.824 8.328zm-126.102 77.347a7.537 7.537 0 0 0-7.535 7.536v27.355H84.195V331.14h32.614v37.4c0 5.081 4.129 9.21 9.21 9.21 4.094 0 4.758-1.246 19.684-12.918l14.004 10.961c.008 0 .008.008.008.008 6.066 4.71 14.879.375 14.879-7.262v-37.398h32.61v80.117a7.537 7.537 0 0 0 7.534 7.535 7.534 7.534 0 0 0 7.535-7.535v-80.121h55.82V468.75h-55.82v-27.355a7.537 7.537 0 0 0-7.535-7.536zm-82.86-77.347V331.14h27.645v25.37c-8.214-6.421-9.734-8.327-13.82-8.327-4.055 0-5.496 1.816-13.824 8.328zm-88.62-25.375h25.867V468.75H43.258zM457.105 496.93H43.258v-13.11h413.847zm28.192 0h-13.121v-63.032a7.521 7.521 0 0 0-7.535-7.53 7.531 7.531 0 0 0-7.536 7.53v34.852h-25.867V331.137h25.867v72.625a7.54 7.54 0 0 0 7.536 7.535 7.53 7.53 0 0 0 7.535-7.535V15.07h13.12zm0 0" fill="#023345" opacity="1" data-original="#000000" class=""></path></g></svg>