<svg xmlns="http://www.w3.org/2000/svg" version="1.1" xmlns:xlink="http://www.w3.org/1999/xlink" width="512" height="512" x="0" y="0" viewBox="0 0 64 64" style="enable-background:new 0 0 512 512" xml:space="preserve"><g transform="matrix(-1,0,0,1,64.0000228881836,0)"><path d="m59.748 11.666.509-.509A5.91 5.91 0 0 0 62 6.95 5.957 5.957 0 0 0 56.05 1a5.91 5.91 0 0 0-4.207 1.743l-.887.887C49.86 2.021 48.03 1 46.024 1a5.948 5.948 0 0 0-4.172 1.697L3.302 40.284A5.99 5.99 0 0 0 1 45c0 3.309 2.691 6 6 6a5.987 5.987 0 0 0 4.713-2.299l3.957-3.957a6.034 6.034 0 0 0 2.586 2.586l-4.957 4.957A5.987 5.987 0 0 0 11 57c0 3.309 2.691 6 6 6a5.987 5.987 0 0 0 4.713-2.299l39.544-39.544A5.91 5.91 0 0 0 63 16.95a5.925 5.925 0 0 0-3.252-5.284zm-6.491-7.509A3.924 3.924 0 0 1 56.05 3 3.955 3.955 0 0 1 60 6.95a3.924 3.924 0 0 1-1.157 2.793L26.98 41.606a6 6 0 0 0-5.586-5.586zM7 49c-2.206 0-4-1.794-4-4s1.794-4 4-4 4 1.794 4 4-1.794 4-4 4zm5.98-4.394a6.002 6.002 0 0 0-5.52-5.583L43.249 4.129A3.954 3.954 0 0 1 46.024 3a3.99 3.99 0 0 1 3.491 2.071L17.299 37.287a5.987 5.987 0 0 0-2.271 5.271zM17 42c0-2.206 1.794-4 4-4s4 1.794 4 4-1.794 4-4 4-4-1.794-4-4zm0 19c-2.206 0-4-1.794-4-4s1.794-4 4-4 4 1.794 4 4-1.794 4-4 4zm42.843-41.257L22.98 56.606a6 6 0 0 0-5.586-5.586l3.048-3.048a5.987 5.987 0 0 0 5.271-2.271L58.224 13.19A3.935 3.935 0 0 1 61 16.95a3.924 3.924 0 0 1-1.157 2.793z" fill="#023345" opacity="1" data-original="#000000"></path></g></svg>