<svg xmlns="http://www.w3.org/2000/svg" version="1.1" xmlns:xlink="http://www.w3.org/1999/xlink" width="512" height="512" x="0" y="0" viewBox="0 0 512 512" style="enable-background:new 0 0 512 512" xml:space="preserve"><g><path d="M481 106a5 5 0 1 0 0-10h-35V76h35a5 5 0 1 0 0-10h-35V31a5 5 0 1 0-10 0v120h-20V31a5 5 0 1 0-10 0v35h-45V31a5 5 0 1 0-10 0v35h-20V31a5 5 0 1 0-10 0v35h-45V31a5 5 0 1 0-10 0v120h-20V31a5 5 0 0 0-10 0v35h-45V31a5 5 0 0 0-10 0v35h-20V31a5 5 0 0 0-10 0v35h-45V31a5 5 0 0 0-10 0v120H76V31a5 5 0 0 0-10 0v35H31a5 5 0 0 0 0 10h35v20H31a5 5 0 0 0 0 10h35v45H31a5 5 0 0 0 0 10h120v20H31a5 5 0 0 0 0 10h35v45H31a5 5 0 0 0 0 10h35v20H31a5 5 0 1 0 0 10h35v45H31a5 5 0 1 0 0 10h120v20H31a5 5 0 1 0 0 10h35v45H31a5 5 0 1 0 0 10h35v20H31a5 5 0 1 0 0 10h35v35a5 5 0 1 0 10 0V361h20v120a5 5 0 1 0 10 0v-35h45v35a5 5 0 1 0 10 0v-35h20v35a5 5 0 1 0 10 0v-35h45v35a5 5 0 1 0 10 0V361h20v120c0 2.762 2.238 5 5 5s5-2.238 5-5v-35h45v35c0 2.762 2.238 5 5 5s5-2.238 5-5v-35h20v35c0 2.762 2.238 5 5 5s5-2.238 5-5v-35h45v35c0 2.762 2.238 5 5 5s5-2.238 5-5V361h20v120c0 2.762 2.238 5 5 5s5-2.238 5-5v-35h35c2.762 0 5-2.238 5-5s-2.238-5-5-5h-35v-20h35c2.762 0 5-2.238 5-5s-2.238-5-5-5h-35v-45h35c2.762 0 5-2.238 5-5s-2.238-5-5-5H361v-20h120c2.762 0 5-2.238 5-5s-2.238-5-5-5h-35v-45h35c2.762 0 5-2.238 5-5s-2.238-5-5-5h-35v-20h35a5 5 0 1 0 0-10h-35v-45h35a5 5 0 1 0 0-10H361v-20h120a5 5 0 1 0 0-10h-35v-45zM96 321H76V191h20zm320-130h20v130h-20zm-140-85h45v45h-45zm45 55v20H191v-20zm0 30v45h-45v-45zm-45 85h45v45h-45zm-10-85v130h-20V191zm-30 0v45h-45v-45zm-45-40v-45h45v45zm-85-75h130v20H106zm75 160h-20V106h20zm-75-85v-45h45v45zm0 40h45v45h-45zm0 55h130v20H106zm130 30v45h-45v-45zm-55 130h-20V276h20zm-75-85v-45h45v45zm0 40h45v45h-45zm130 75H106v-20h130zm0-30h-45v-45h45zm-45-55v-20h130v20zm130 10v45h-45v-45zm85 75H276v-20h130zm-75-30V276h20v130zm75-45v45h-45v-45zm0-40h-45v-45h45zm0-55H276v-20h130zm-55-30h-20V106h20zm55-45v45h-45v-45zm0-40h-45v-45h45zm0-55H276V76h130z" fill="#023345" opacity="1" data-original="#000000"></path></g></svg>