<svg xmlns="http://www.w3.org/2000/svg" version="1.1" xmlns:xlink="http://www.w3.org/1999/xlink" width="512" height="512" x="0" y="0" viewBox="0 0 512 512" style="enable-background:new 0 0 512 512" xml:space="preserve"><g><path d="M248 240a7.976 7.976 0 0 0 5.657-2.343l72-72a8 8 0 0 0 0-11.314l-24-24a8 8 0 0 0-11.314 0L248 172.686l-10.343-10.343a8 8 0 0 0-11.314 0l-24 24a8 8 0 0 0 0 11.314l40 40A7.976 7.976 0 0 0 248 240Zm-16-60.686 10.343 10.343a8 8 0 0 0 11.314 0L296 147.314 308.686 160 248 220.686 219.314 192Z" fill="#023345" opacity="1" data-original="#000000"></path><path d="M488 400V264a8 8 0 0 0-8-8H369.99c25.127-40.981 37.91-92.009 38.01-151.987a8 8 0 0 0-4.115-7.006l-144-80a8 8 0 0 0-7.77 0l-144 80a8 8 0 0 0-4.115 6.98c0 1.3.048 32.223 8.855 72.067 7.214 32.638 21.79 76.777 50.9 111.946H136a56.064 56.064 0 0 0-56 56 24.028 24.028 0 0 1-24 24 40.045 40.045 0 0 0-40 40v40a8 8 0 0 0 8 8h48.679a47.991 47.991 0 0 0 94.642 0h161.358a47.991 47.991 0 0 0 94.642 0H488a8 8 0 0 0 8-8v-40a8 8 0 0 0-8-8ZM48 385.376V400H33.376A24.119 24.119 0 0 1 48 385.376ZM120 480a32 32 0 1 1 32-32 32.036 32.036 0 0 1-32 32Zm72-40h-24.679a47.991 47.991 0 0 0-94.642 0H32v-24h24a8 8 0 0 0 8-8v-24.8A40.067 40.067 0 0 0 96 344a40.045 40.045 0 0 1 40-40h56Zm0-176v24h-6.739c-57.27-58.265-64.29-156.913-65.143-179.358L256 33.152l135.965 75.536c-.786 59.1-14.58 108.607-41.027 147.312H320.88c27.195-32.228 42.763-75.289 46.326-128.36a8 8 0 0 0-4.1-7.529L259.885 62.765a8 8 0 0 0-7.77 0l-102.524 56.958a8 8 0 0 0-4.072 7.811c1.815 17.67 5.949 44.513 15.329 72.048 8.219 24.128 18.976 44.546 32.008 60.833A7.949 7.949 0 0 0 192 264Zm-16.006-69.578a315.127 315.127 0 0 1-13.981-63.3L256 78.91l94.862 52.7c-4.43 53.152-21.831 94.945-51.762 124.39h-90.638l.893-.789c-13.672-15.487-24.897-35.939-33.361-60.789ZM328.679 440H208v-24h132.261a47.866 47.866 0 0 0-11.582 24ZM376 480a32 32 0 1 1 32-32 32.036 32.036 0 0 1-32 32Zm-168-80V272h264v128Zm272 40h-56.679a47.866 47.866 0 0 0-11.582-24H480Z" fill="#023345" opacity="1" data-original="#000000"></path><path d="M112 328v48a8 8 0 0 0 8 8h48a8 8 0 0 0 8-8v-48a8 8 0 0 0-8-8h-48a8 8 0 0 0-8 8Zm16 8h32v32h-32Z" fill="#023345" opacity="1" data-original="#000000"></path><circle cx="120" cy="448" r="16" fill="#023345" opacity="1" data-original="#000000"></circle><circle cx="376" cy="448" r="16" fill="#023345" opacity="1" data-original="#000000"></circle></g></svg>