<svg xmlns="http://www.w3.org/2000/svg" version="1.1" xmlns:xlink="http://www.w3.org/1999/xlink" width="512" height="512" x="0" y="0" viewBox="0 0 512 512" style="enable-background:new 0 0 512 512" xml:space="preserve"><g transform="matrix(-1,0,0,1,511.99900817871094,0)"><path d="m91.67 295.32-63.865 63.539M150.096 464.287l24.2-24.062M42.443 478.502c13.051 8.987 28.874 14.264 45.943 14.264 44.672 0 80.885-36.059 80.885-80.539s-36.214-80.539-80.885-80.539c-44.672 0-80.886 36.059-80.886 80.539 0 16.828 5.191 32.446 14.054 45.367" style="stroke-width:15;stroke-linecap:round;stroke-linejoin:round;stroke-miterlimit:10;" fill="none" stroke="#023345" stroke-width="15" stroke-linecap="round" stroke-linejoin="round" stroke-miterlimit="10" data-original="#000000" opacity="1"></path><ellipse cx="88.386" cy="412.226" rx="54.886" ry="54.539" style="stroke-width:15;stroke-linecap:round;stroke-linejoin:round;stroke-miterlimit:10;" fill="none" stroke="#023345" stroke-width="15" stroke-linecap="round" stroke-linejoin="round" stroke-miterlimit="10" data-original="#000000" opacity="1"></ellipse><path d="m311.867 464.287 166.861-165.91a81.742 81.742 0 0 0 4.004-3.983l.255-.254-.007-.006c13.35-14.363 21.519-33.569 21.519-54.682 0-44.481-36.214-80.539-80.886-80.539-11.776 0-22.962 2.509-33.051 7.017" style="stroke-width:15;stroke-linecap:round;stroke-linejoin:round;stroke-miterlimit:10;" fill="none" stroke="#023345" stroke-width="15" stroke-linecap="round" stroke-linejoin="round" stroke-miterlimit="10" data-original="#000000" opacity="1"></path><ellipse cx="250.157" cy="412.226" rx="80.886" ry="80.539" style="stroke-width:15;stroke-linecap:round;stroke-linejoin:round;stroke-miterlimit:10;" fill="none" stroke="#023345" stroke-width="15" stroke-linecap="round" stroke-linejoin="round" stroke-miterlimit="10" data-original="#000000" opacity="1"></ellipse><ellipse cx="250.157" cy="412.226" rx="54.886" ry="54.539" style="stroke-width:15;stroke-linecap:round;stroke-linejoin:round;stroke-miterlimit:10;" fill="none" stroke="#023345" stroke-width="15" stroke-linecap="round" stroke-linejoin="round" stroke-miterlimit="10" data-original="#000000" opacity="1"></ellipse><path d="M387.953 32.989c-12.909-8.684-28.472-13.755-45.224-13.755-24.736 0-46.864 11.068-61.701 28.488l-.01-.009-171.11 170.13M230.982 324.609l166.861-165.91a81.742 81.742 0 0 0 4.004-3.983l.255-.254-.007-.006c13.35-14.363 21.519-33.569 21.519-54.682 0-16.241-4.828-31.359-13.132-44.009" style="stroke-width:15;stroke-linecap:round;stroke-linejoin:round;stroke-miterlimit:10;" fill="none" stroke="#023345" stroke-width="15" stroke-linecap="round" stroke-linejoin="round" stroke-miterlimit="10" data-original="#000000" opacity="1"></path><ellipse cx="169.271" cy="272.549" rx="80.886" ry="80.539" style="stroke-width:15;stroke-linecap:round;stroke-linejoin:round;stroke-miterlimit:10;" fill="none" stroke="#023345" stroke-width="15" stroke-linecap="round" stroke-linejoin="round" stroke-miterlimit="10" data-original="#000000" opacity="1"></ellipse><ellipse cx="169.271" cy="272.549" rx="54.885" ry="54.539" style="stroke-width:15;stroke-linecap:round;stroke-linejoin:round;stroke-miterlimit:10;" fill="none" stroke="#023345" stroke-width="15" stroke-linecap="round" stroke-linejoin="round" stroke-miterlimit="10" data-original="#000000" opacity="1"></ellipse></g></svg>