<svg xmlns="http://www.w3.org/2000/svg" version="1.1" xmlns:xlink="http://www.w3.org/1999/xlink" width="512" height="512" x="0" y="0" viewBox="0 0 512 512" style="enable-background:new 0 0 512 512" xml:space="preserve" class="hovered-paths"><g transform="matrix(-1,-1.2246467991473532e-16,1.2246467991473532e-16,-1,511.9989929199218,511.999969482422)"><path d="M493.375 160.507H88.398c-4.143 0-7.5 3.358-7.5 7.5s3.357 7.5 7.5 7.5h67.32l-39.473 56.242H18.624A3.629 3.629 0 0 1 15 228.124v-48.993a3.628 3.628 0 0 1 3.624-3.624h39.773a7.5 7.5 0 0 0 0-15H18.624C8.354 160.507 0 168.862 0 179.131v48.993c0 10.27 8.354 18.625 18.624 18.625h474.751c10.27 0 18.624-8.355 18.624-18.625v-48.993c.001-10.269-8.354-18.624-18.624-18.624zm-212.076 71.242 39.472-56.242h32.135l-39.473 56.242zm-96.268 0 39.472-56.242h77.942l-39.472 56.242zm-10.987-56.242h32.135l-39.472 56.242h-32.135zM497 228.125a3.629 3.629 0 0 1-3.624 3.625H331.759l39.472-56.242h122.145a3.628 3.628 0 0 1 3.624 3.624zM493.375 264.861H18.624C8.354 264.861 0 273.215 0 283.485v48.994c0 10.27 8.354 18.624 18.624 18.624h474.751c10.27 0 18.624-8.354 18.624-18.624v-48.994c.001-10.27-8.354-18.624-18.624-18.624zm-212.076 71.242 39.473-56.242h32.135l-39.472 56.242zm-96.268 0 39.472-56.242h77.942l-39.472 56.242zm-50.46 0 39.472-56.242h32.135l-39.472 56.242zM15 332.479v-48.994a3.628 3.628 0 0 1 3.624-3.624h137.095l-39.472 56.242H18.624A3.628 3.628 0 0 1 15 332.479zm482 0a3.628 3.628 0 0 1-3.624 3.624H331.759l39.472-56.242h122.144a3.628 3.628 0 0 1 3.624 3.624v48.994zM493.375 56.543H18.624C8.354 56.543 0 64.898 0 75.167v48.994c0 10.269 8.354 18.624 18.624 18.624h474.751c10.27 0 18.624-8.355 18.624-18.624V75.167c.001-10.269-8.354-18.624-18.624-18.624zm-212.076 71.242 39.473-56.242h32.135l-39.472 56.242zm-96.268 0 39.472-56.242h77.942l-39.472 56.242zm-50.46 0 39.472-56.242h32.135l-39.472 56.242zM15 124.161V75.167a3.628 3.628 0 0 1 3.624-3.624h137.095l-39.472 56.242H18.624A3.628 3.628 0 0 1 15 124.161zm482 0a3.628 3.628 0 0 1-3.624 3.624H331.759l39.472-56.242h122.144a3.628 3.628 0 0 1 3.624 3.624v48.994zM493.375 369.214H18.624C8.354 369.214 0 377.569 0 387.839v48.994c0 10.27 8.354 18.624 18.624 18.624H386.64c4.143 0 7.5-3.358 7.5-7.5s-3.357-7.5-7.5-7.5h-54.881l39.472-56.242h122.144a3.628 3.628 0 0 1 3.624 3.624v48.994a3.628 3.628 0 0 1-3.624 3.624H416.64c-4.143 0-7.5 3.358-7.5 7.5s3.357 7.5 7.5 7.5h76.735c10.27 0 18.624-8.354 18.624-18.624v-48.994c.001-10.27-8.354-18.625-18.624-18.625zm-308.344 71.242 39.472-56.242h77.942l-39.472 56.242zm-50.46 0 39.472-56.242h32.135l-39.472 56.242zM15 436.832v-48.994a3.628 3.628 0 0 1 3.624-3.624h137.095l-39.472 56.242H18.624A3.628 3.628 0 0 1 15 436.832zm298.434 3.624h-32.135l39.473-56.242h32.135z" fill="#023345" opacity="1" data-original="#000000" class="hovered-path"></path></g></svg>